<?xml version="1.0" encoding="UTF-8"?><svg id="_圖層_2" xmlns="http://www.w3.org/2000/svg" xmlns:xlink="http://www.w3.org/1999/xlink" viewBox="0 0 300.35 387.13"><defs><style>.cls-1{fill:url(#_未命名漸層_59);}.cls-2{fill:#24393b;}.cls-3{fill:#fff;}.cls-4{fill:red;}</style><linearGradient id="_未命名漸層_59" x1="150.18" y1="300.35" x2="150.18" y2="0" gradientUnits="userSpaceOnUse"><stop offset="0" stop-color="#fff" stop-opacity="0"/><stop offset=".48" stop-color="#eedcc1" stop-opacity=".49"/><stop offset="1" stop-color="#ddb881"/></linearGradient></defs><g id="_設計"><circle class="cls-1" cx="150.18" cy="150.18" r="150.18"/><path class="cls-2" d="M179.37,269.2c-3.57,2.27-7.12,3.28-11.19,2.93-5.13-.44-7.96-4.33-9.04-8.19-.11-.38.18-1.26.37-1.28.82-.1,1.68.02,2.83.07.11-.47.27-1.19.51-2.25.99.94,1.75,1.94,2.76,2.53.9.53,2.22,1.08,3.08.8,7.71-2.54,14.03-7.27,19.67-12.99.4-.41.67-.95.97-1.46,1.17-2.01,3.74-2.71,5.77-1.55,4.17,2.37,5.78,7.14,4.08,11.69-2.47,6.63-5.13,13.21-7.18,19.98-1.56,5.15-2.56,10.51-3.31,15.84-1.22,8.62-2.06,17.3-2.97,25.96-.11,1.09.37,2.23.52,3.35.09.71.18,1.44.09,2.14-.26,1.96-1.14,4-.8,5.83.6,3.22-1.52,4.71-3.18,6.6-.19.22-.45.39-.71.52-2.03.97-3.68,4.18-6.45.38-.59,3.72-1.18,6.71-1.53,9.73-.92,8.12-1.82,16.24-2.53,24.38-.13,1.48.45,3.13,1.06,4.54,1.23,2.83.35,5.55-2.44,6.77-.99.43-1.92,1.01-2.92,1.37-.58.21-1.33.32-1.9.14-7.92-2.63-14.19-7.32-16.09-15.74-1.24-5.51-1.4-11.32-1.45-17-.02-3.12,1.26-6.24,1.87-9.37,1.49-7.69,2.79-15.42,4.46-23.08.85-3.9,2.39-7.65,3.46-11.51.26-.93-.09-2.02-.13-3.04-.08-2.03-.28-4.07-.17-6.09.09-1.58.35-3.22.93-4.67.57-1.43,1.37-3.24,2.59-3.82,1.4-.66,2.77.59,3.89,1.99,1.51,1.91,3.55,3.38,5.28,5.13.57.58,1.19,1.41,1.24,2.16.14,1.81.38,3.79-.19,5.42-1.06,3.01.42,5.31,1.52,7.87,1.54-15.49,2.31-31.05,7.21-46.09ZM162.16,363.07c.29.01.58.03.88.04.38-1.08.67-2.21,1.16-3.24,3.41-7.34,4.92-15.23,6.73-23.03.26-1.11-.27-2.55-.79-3.67-.94-2.02-2.11-3.95-3.31-5.83-.13-.2-1.56,0-1.68.3-.79,1.94-1.76,3.91-1.96,5.95-.72,7.07-1.28,14.16-1.64,21.26-.14,2.72.4,5.48.62,8.22Z"/><path class="cls-2" d="M207.95,340.1c-.5-.72-.95-1.36-1.8-2.57,4.9-1.58,9.59-3.09,14.28-4.6,0-.29,0-.57,0-.86-.84-.45-1.64-1.02-2.54-1.33-3.22-1.12-6.47-2.15-9.7-3.24-.33-.11-.66-.35-.89-.62-2.07-2.41-4.12-4.82-6.14-7.27-.25-.3-.39-1.13-.34-1.15,1.43-.6,1.48-3.21,3.69-2.6,7.87,2.17,14.75-.94,21.73-3.87,5.17-2.16,10.46-4.01,15.69-6.02.52-.2,1.41-.54,1.41-.82.02-2.48,2.22-2.58,3.61-2.9,1.58-.37,3.39.21,5.09.38,2.36.24,4.49.75,6.11,2.83,1.59,2.03,1.86,4.59.7,6.85-2.35,4.58-4.47,9.28-6.69,13.93-1.18,2.48-2.45,4.93-3.52,7.47-1.03,2.46-1.86,5.01-3.01,8.17,2.59-.48,4.79-.71,6.88-1.32,3.85-1.12,7.7-2.32,11.43-3.8,1.68-.67,2.99-2.23,4.61-3.14,1.55-.87,3.22-1.77,4.94-2.03,4.47-.68,8.58.61,12.73,2.39,5.92,2.53,8.03,7.66,9.8,13.04.9,2.75-1.87,6.13-5.03,6.03-4.81-.16-9.23,1.34-13.82,2.22-2.65.5-5.65.66-7.35-2.48,2.75-1.97,5.43-3.96,8.19-5.82,1.3-.88,1.43-1.73.46-2.86-.1-.11-.22-.2-.31-.31-3.52-4.37-3.49-4.32-8.42-1.95-5.19,2.5-10.53,4.71-15.64,7.36-4.7,2.44-4.53,2.68-.07,5.49,4.86,3.05,9.59,6.31,14.34,9.53.57.39.87,1.17,1.43,1.61,2.09,1.65,4.18,3.31,6.36,4.84,2.72,1.93,3.01,3.9.48,5.38-.78.46-2.26.53-3,.08-1.58-.95-2.98-.63-4.59-.35-8.55,1.48-17.16,2.61-25.83,1.93-6.1-.48-11.46-3.29-16.57-6.55-3.06-1.95-6.21-3.79-9.27-5.74-4.65-2.96-7.01-7.67-9.31-12.39-1.17-2.41-2.32-4.84-3.3-7.33-1.13-2.86-.58-3.9,2.36-5.1.25-.1.47-.29.81-.51ZM208.59,341.23c.36.51.72,1.02,1.07,1.53,1.17,1.72,2.5,3.36,3.45,5.19,1.17,2.25,2.08,4.64,2.97,7.02,1.19,3.18,3.25,5.61,6.06,7.45,1.82,1.19,3.62,2.43,5.5,3.52,5.68,3.3,11.56,5.86,18.38,5.67,5.65-.16,11.31.14,16.97.08,1.44-.02,2.87-.62,4.3-.96-.84-1.27-1.41-2.88-2.55-3.76-4.83-3.71-9.72-7.36-14.81-10.7-3.5-2.3-7.18-4.59-11.11-5.94-4.98-1.71-9.15-4.1-12.22-8.7-5.91,2.61-11.96,4.34-18.01-.42ZM223.49,326.43c.05.24.1.48.14.72,4.18,2.16,8.29,4.52,13.15,4.72.66.03,1.72-.33,1.96-.83,2.11-4.23,4.22-8.48,6.04-12.85.92-2.19,1.25-4.63,1.84-6.96-.23-.13-.46-.25-.69-.38-4.26,1.29-8.64,2.27-12.87,4.58,1.57,1.17,2.98,1.85,3.82,2.95.94,1.24,2.02,2.94,1.87,4.32-.2,1.8-2.24,2.26-3.99,2.38-1.39.1-2.79.07-4.16.25-2.38.3-4.75.72-7.12,1.1Z"/><path class="cls-2" d="M242.62,259c.63-.2,1.15-.22,1.25-.42,1.06-2.32,3.24-1.56,5.03-2,3.63-.9,6.36,1.32,9.26,2.6,2.61,1.15,4.72,6.36,2.36,8.57-1.15,1.08-2.91,1.52-4.39,2.25-3.5,1.72-7.01,3.44-10.51,5.18-.28.14-.45.47-.6.62,1.4.98,2.93,1.69,3.95,2.85,2.22,2.53.86,6.02-2.44,6.69-2.54.51-5.73,3.3-6.91,6.3,1.31-.32,2.6-.29,3.39-.91,1.41-1.1,2.54-1.05,4.05-.28,2.48,1.27,5.63.79,7.79,3.1,1.21,1.29,2.34,2.39,1.56,4.34-.78,1.95-2.05,3.22-4.26,3.18-1.02-.01-2.13,0-3.05-.37-4.7-1.94-9.09-.27-13.48,1.06-3.26.99-6.37,2.56-9.66,3.4-4.23,1.09-8.58,1.71-12.89,2.53-.72.14-1.44.25-2.17.33-4.43.45-6.82-2.36-6.95-6.47-.01-.44.52-.95.9-1.33.67-.68,1.33-1.47,2.16-1.86.69-.32,1.69-.36,2.43-.13,5.49,1.7,13.97-1.55,17.04-6.62-2.25-2.64-2.27-2.68-5.36-1.15-1.69.83-3.39,1.69-4.95,2.74-2.57,1.72-7.19,1.43-8.3-2.46-.3-1.03-.93-1.97-1.4-2.96-.47-.99-.92-1.98-1.39-2.98,1.63-1.92,3.38-2.12,5.66-1.73,2.4.41,4.93.11,7.4.06.57-.01,1.15-.39,1.71-.37,4.15.16,5.91-2.78,7.51-5.82.78-1.48,1.26-3.11,2.01-5.04-2.6.47-4.36,1.95-6.19,3.25-1.63,1.16-3.14,2.48-4.75,3.65-1.56,1.13-4.51,1.15-6.05.08-1.98-1.38-2.72-3.45-2.54-5.69.18-2.13.68-4.26,1.31-6.3.24-.78,1.09-1.67,1.85-1.93,3.96-1.34,6.64-4.35,9.66-6.94,1.2-1.03,2.39-2.08,3.76-3.28-2-1.04-3.68-1.99-5.43-2.78-1.69-.77-3.91-3.74-3.63-5.58.14-.9.91-2.16,1.66-2.4,1.17-.36,2.69-.3,3.84.16,1.23.48,2.17,1.68,3.3,2.47,2.67,1.86,3.3,1.43,5.73-.61,1.25-1.04,3.55-1.08,5.37-1.08,1.03,0,1.63.02,2.62-.61,3.75-2.37,7.84-3.93,12.25-1.77.95.47,1.82,1.61,2.19,2.64.51,1.4-.01,2.88-1.49,3.49-1.79.75-3.65,1.51-5.55,1.74-3.15.38-3.96.97-4.24,4.14-.12,1.37-.3,2.73-.49,4.47ZM230.54,258.49c-2.12,1.91-3.98,3.57-5.83,5.24,4.8-.89,6.89-1.56,5.83-5.24ZM241.64,269.58c-.18-.29-.35-.58-.53-.87-1.06.48-2.14.93-3.16,1.48-.21.11-.35.69-.25.92.1.23.68.51.85.41,1.06-.59,2.07-1.29,3.09-1.95Z"/><path class="cls-2" d="M199.19,349.84c-.38,3.34-.75,6.68-1.15,10.02-.58,4.85-.47,9.57,1.72,14.14.55,1.15.27,2.86-.06,4.21-.34,1.38-1.06,2.71-2.94,2.73-1.98.02-3.29-.83-4.24-2.52-2.37-4.23-2.6-8.84-2.43-13.51.25-6.81.56-13.61.77-20.42.09-2.9,1.15-5.27,3.39-7.04.42-.33,1.76-.3,1.93,0,1,1.78,2.16,3.62,2.55,5.57.43,2.19.1,4.53.1,6.81.12,0,.25.02.37.03Z"/><path class="cls-2" d="M187.98,166.84c-10.07-1.46-20.97-.75-24.2-13.16,8.63-1.76,16.58-3.05,24.29-5.17,2.18-.6,4.95-3.44,5.29-5.6,1.98-12.61,2.94-25.28-4.98-36.63,7.46-2.77,16.73.7,20.66,9.98,2.9,6.85,1.97,15.33,2.78,23.45,2.78-1.07,6.55-2.52,10.71-4.13-1.63-2.69-3.02-4.95-4.74-7.78,7.84,2.3,15.33,3.77,22.1,6.83,2.75,1.24,4.75,5.78,5.46,9.17.32,1.52-2.99,4.75-5.28,5.72-8.47,3.59-17.03,7.13-25.86,9.63-10.53,2.98-14.12,11.23-18.31,19.94-4.86,10.11-10.33,20.1-16.88,29.16-5.69,7.86-14.46,10.63-24.74,8.14,19.16-11.26,29.31-28.21,33.69-49.57Z"/><path class="cls-2" d="M244.35,212.26c-7.63-14.9-20.85-22.07-32.26-31.03.39-.74.77-1.48,1.16-2.22,6.7,2.23,13.91,3.54,19.98,6.92,9.04,5.03,17.57,11.13,25.76,17.5,8.29,6.44,10.63,14.83,7,20.98-4.27,7.24-11.08,7.05-15.97.19-3.56-5-8.16-9.25-13.8-13.06,2.17.2,4.35.39,8.13.73Z"/><path class="cls-4" d="M135.16,159.9v5.37c0,.41-.01.64-.04.71-.1.22-.25.33-.45.33-.14.04-.26-.03-.39-.2-.05-.12-.08-.39-.08-.79v-5.41"/><path class="cls-4" d="M134.7,103.52c-.37,0-.74.14-1.03.42-3.9,3.73-12.96,13.94-12.96,28.21,0,18.32,10.07,26.58,13.16,28.68.51.34,1.16.34,1.67,0,3.09-2.1,13.16-10.36,13.16-28.68,0-14.26-9.06-24.48-12.96-28.21-.29-.28-.66-.42-1.03-.42"/><path class="cls-3" d="M134.7,161.81c-.43,0-.86-.13-1.24-.38-3.16-2.15-13.48-10.61-13.48-29.28,0-14.54,9.22-24.94,13.18-28.73.86-.82,2.21-.82,3.07,0,3.96,3.79,13.18,14.19,13.18,28.73,0,18.68-10.31,27.14-13.48,29.28-.38.26-.81.38-1.24.38M134.7,103.52c-.37,0-.74.14-1.03.42-3.9,3.73-12.96,13.94-12.96,28.21,0,18.32,10.07,26.58,13.16,28.68.51.34,1.16.34,1.67,0,3.09-2.1,13.16-10.36,13.16-28.68,0-14.26-9.06-24.48-12.96-28.21-.29-.28-.66-.42-1.03-.42"/><path class="cls-3" d="M137.7,113.44c-.07-.01-.31-.02-.71-.02h-1.38c-.33,0-.49-.18-.49-.53s0-9.51-.02-9.57c-.16-.29-.37-.39-.63-.31-.15.04-.23.12-.24.22-.05.15-.07,9.35-.06,9.69,0,.33-.16.49-.49.49h-3.85c-.33,0-.49-.17-.49-.51.01-.22,0-3.79-.02-3.99-.1-.24-.27-.35-.53-.33-.14.01-.25.08-.33.2-.05.14-.08,3.74-.08,4.09s-.16.53-.49.53h-2.37c-.33.08-.44.29-.35.63.01.08.09.17.24.27.07.03.31.04.71.04h1.76c.33,0,.49.16.49.49v2.02c.15.87.61,1.33,1.39,1.39h.98c.33,0,.49.39.49.81s-.16.77-.49.77h-3.39c-.16.01-.33.07-.49.18-.31.23-.48.49-.51.77v2.52c0,.46.43.96.98.96h3.41c.41,0,.49.29.49.74,0,.62,0,.85-.49.85h-5.32c-.27.05-.4.2-.39.43.01.26.13.43.37.51h5.34c.33,0,.49.16.49.49v.75c0,.33-.16.49-.49.49h-4.77c-.41,0-.65,0-.71.02-.11.04-.19.12-.24.22-.08.26-.03.46.14.61.14.07.41.1.81.1h4.77c.33,0,.49.16.49.49v1.39c0,.33-.17.48-.51.53-2.05.31-8.83.73-9.85.77-.23.01-.39.11-.49.29-.08.23-.04.41.12.55.31.11.89.12,1.73.04,3.87-.3,12.49-1.13,14.05-1.56.29-.04.41-.19.37-.45-.03-.27-.16-.43-.41-.49-1.1.26-2.3.47-3.59.63-.33.03-.49-.12-.49-.45v-1.24c0-.33.17-.49.51-.49h3.14c.39,0,.62-.01.69-.04.16-.1.24-.2.24-.33.03-.3-.05-.48-.24-.55-.07-.03-.31-.04-.71-.04h-3.14c-.33,0-.49-.17-.49-.51v-.73c0-.33.17-.49.51-.49h3.14c.41,0,.64-.01.69-.04.08-.04.16-.1.24-.18.12-.35.03-.59-.29-.71h-3.81c-.49,0-.49-.32-.49-.87,0-.43.1-.72.51-.72h3.31c.62-.1,1.06-.45,1.06-1.06v-2.33c-.07-.57-.38-.92-.94-1.04h-3.45c-.33,0-.49-.36-.49-.79,0-.41.17-.79.51-.79h.96c.56-.03.98-.25,1.26-.67.22-.43.29-2.09.22-2.73,0-.33.17-.49.51-.49h1.31c.41,0,.66-.03.75-.08.11-.04.19-.13.24-.26.04-.26-.04-.45-.24-.57M131.23,122.84c0,.33-.16.49-.49.49h-2.45c-.33,0-.53-.01-.61-.04-.11-.05-.2-.13-.29-.22-.07-.14-.1-.38-.1-.73,0-.79-.09-1.56.55-1.56h2.9c.33,0,.49.16.49.49v1.58ZM132.68,120.77h2.48c.54-.09.86.08.96.53v1.48c-.05.31-.26.5-.61.55h-2.84c-.33,0-.49-.17-.49-.51v-1.56c0-.33.17-.49.51-.49M134.15,116.6c-.1.43-.35.67-.77.71h-3.34c-.34-.05-.56-.24-.65-.55-.04-.14-.05-1.52-.04-1.91,0-.33.17-.49.51-.49h3.85c.31,0,.47.17.47.51.01.2,0,1.53-.02,1.73"/><path class="cls-3" d="M140.58,114.69c.1-.28.24-.41.45-.39.2-.01.36.07.47.26.03.1.04.34.04.73v1.74c0,.34.16.51.49.51h2.43c.27,0,.54.13.81.39.31.45.43,1.03.35,1.73-.07,4.18-.19,7.86-.37,9.91-.04.79-.27,1.6-.67,2.45-.31.64-.78,1.05-1.41,1.24-.45.15-1.13.16-2.06.02-.5-.05-.91-.16-1.22-.33-.22-.12-.33-.24-.35-.35-.04-.2.02-.37.18-.51.12-.11.29-.12.51-.04.56.18,1.1.29,1.63.33.43.05.79.03,1.06-.06.3-.09.55-.3.75-.61.28-.44.47-.98.55-1.63.24-2.27.39-5.11.43-8.52v-1.84c.07-.42,0-.77-.2-1.04-.11-.11-.25-.18-.41-.2h-2.04c-.34,0-.51.16-.51.49-.05,2.04-.31,4.76-.75,7.06-.23,1.15-.49,2.25-.88,3.26-1.14,2.99-2.65,4.36-3.41,5.13-.76.77-1.11,1.01-1.42.88-.38-.24-.4-.53-.06-.86.28-.28,1.79-1.61,2.66-2.89.87-1.27,1.32-2.45,1.62-3.44.77-2.65,1.2-6.07,1.28-9.14,0-.33-.16-.49-.49-.49h-1.2c-.41,0-.65-.01-.71-.04-.28-.14-.37-.36-.24-.67.07-.12.18-.2.35-.22h1.85c.33,0,.49-.16.49-.49v-2.37Z"/><path class="cls-3" d="M134.2,161.22v-8.94c0-.33-.16-.49-.49-.49h-4.2c-.26-.08-.39-.25-.39-.51.01-.18.08-.3.2-.37.12-.05.39-.08.79-.08h3.59c.33,0,.49-.16.49-.49v-8.32c0-.33,0-.52-.02-.57-.03-.07-.16.07-.41.41-1.43,2.3-3.37,4.57-5.83,6.83-.52.43-1.06.86-1.63,1.28-.35.3-.63.45-.82.45-.39-.09-.54-.31-.45-.63.09-.14.21-.25.35-.35.28-.2.55-.4.81-.6,3.12-2.39,5.58-5.18,7.4-8.36.18-.33.1-.49-.22-.49h-11.41c-.41,0-.68-.03-.82-.1-.14-.11-.2-.24-.18-.39-.01-.15.05-.28.18-.39.14-.05.41-.08.82-.08h11.73c.33,0,.49-.16.49-.49v-2.67c0-.41.03-.68.1-.82.16-.19.37-.23.63-.12.12.14.19.22.2.26.01.05.02.29.02.69v2.63c0,.34.16.51.49.51h12.72c.16.04.27.14.33.29.1.23.03.43-.18.59-.11.05-.37.08-.77.08h-11.68c-.34,0-.42.16-.22.49.61,1.13,1.29,2.19,2.04,3.18,1.52,2.01,3.57,3.95,6.13,5.81.26.29.25.56-.02.82-.29.18-.56.14-.81-.12-3.06-2.35-5.59-5.09-7.6-8.23-.24-.34-.38-.33-.41.02v8.38c0,.34.16.51.49.51h4.1c.29.08.4.28.35.59-.01.11-.08.2-.2.28-.11.05-.37.08-.77.08h-3.44c-.34,0-.51.16-.51.49v8.9"/><path class="cls-3" d="M145.04,150.05s-.85-.37-2.04-1.33l-.6.82s1.1.98,2.13,1.49l.52-.99Z"/><path class="cls-3" d="M145.26,148.92c-.39.72-.6.93-1.3.51l-.17.23,1.07.51.52-1.11-.12-.14Z"/><path class="cls-3" d="M143.08,150.11c.43.32,1.07.99.53,1.95l.17-.04.69-1.2-1.29-.87-.09.16Z"/><path class="cls-3" d="M148.45,136.91c-.19,1.25-1,2.11-2.52,2.11,0,0-.07.51-.07.96,1.07,0,1.98.82,1.7,2.18l.4-.25.8-4.97-.32-.04Z"/><polygon class="cls-3" points="141.54 109.68 140.58 109.36 140.58 115.5 141.54 115.5 141.54 109.68"/><path class="cls-3" d="M134.2,158.58c-.04,1.62-1.07,1.7-1.85,1.11l-.08.33,1.29,1.04.95.17-.11-2.57-.2-.07Z"/><path class="cls-3" d="M135.15,158.58c.04,1.62,1.1,1.7,1.9,1.11l.08.33-1.32,1.04-.98.17.11-2.57.21-.07Z"/><path class="cls-3" d="M134.18,105.6c-.03-1.2-.73-1.4-1.37-.83l-.06-.24.96-.77.71-.29-.09,2.08-.15.05Z"/><path class="cls-3" d="M135.11,105.6c.03-1.2.87-1.47,1.47-.83l.06-.24-1.02-.77-.69-.37.02,2.15.16.05Z"/><path class="cls-3" d="M135.39,134.06c-.31.26-.88.59-1.09,1,0,0,.85,1.28.86.91,0-.38.38-.73.54-.84l-.3-1.07Z"/><path class="cls-3" d="M129.93,107.99c-.39.48-.6.98-.6,1.62h-.18l-.07-.81.75-.97.1.17Z"/><path class="cls-3" d="M128.06,110.47c.23-.31.35-.19.34.1h.24v-.74h-.17l-.53.54.12.1Z"/><path class="cls-3" d="M141.88,111.25c-.23-.31-.35-.19-.34.1h-.24v-.74h.17l.53.54-.12.1Z"/><path class="cls-3" d="M139.87,108.51c.3.38.71.88.71,1.8h.19v-.9l-.8-.98-.1.09Z"/></g></svg>